<mxfile host="app.diagrams.net" agent="Mozilla/5.0 (Macintosh; Intel Mac OS X 10_15_7) AppleWebKit/537.36 (KHTML, like Gecko) Chrome/131.0.0.0 Safari/537.36" version="26.0.5">
  <diagram name="第 1 页" id="Z6ONuFpvm6h_PNGK9DhY">
    <mxGraphModel dx="1183" dy="722" grid="1" gridSize="10" guides="1" tooltips="1" connect="1" arrows="1" fold="1" page="1" pageScale="1" pageWidth="827" pageHeight="1169" math="0" shadow="0">
      <root>
        <mxCell id="0" />
        <mxCell id="1" parent="0" />
        <mxCell id="K0SXBpxwmkwl7hcp56vt-2" value="" style="rounded=0;whiteSpace=wrap;html=1;strokeWidth=2;fillColor=#dae8fc;strokeColor=#6c8ebf;dashed=1;" vertex="1" parent="1">
          <mxGeometry x="210" y="210" width="80" height="390" as="geometry" />
        </mxCell>
        <mxCell id="K0SXBpxwmkwl7hcp56vt-4" value="&lt;font style=&quot;color: light-dark(rgb(130, 179, 102), rgb(237, 237, 237));&quot;&gt;键盘区域&lt;/font&gt;" style="text;html=1;align=center;verticalAlign=middle;whiteSpace=wrap;rounded=0;" vertex="1" parent="1">
          <mxGeometry x="140" y="510" width="60" height="30" as="geometry" />
        </mxCell>
        <mxCell id="K0SXBpxwmkwl7hcp56vt-5" value="" style="endArrow=none;html=1;rounded=0;strokeWidth=2;fillColor=#fff2cc;strokeColor=#d6b656;" edge="1" parent="1">
          <mxGeometry width="50" height="50" relative="1" as="geometry">
            <mxPoint x="240" y="380" as="sourcePoint" />
            <mxPoint x="240" y="340" as="targetPoint" />
          </mxGeometry>
        </mxCell>
        <mxCell id="K0SXBpxwmkwl7hcp56vt-19" style="edgeStyle=orthogonalEdgeStyle;rounded=0;orthogonalLoop=1;jettySize=auto;html=1;curved=1;fillColor=#fff2cc;strokeColor=#d6b656;strokeWidth=2;" edge="1" parent="1" source="K0SXBpxwmkwl7hcp56vt-6">
          <mxGeometry relative="1" as="geometry">
            <mxPoint x="240" y="365" as="targetPoint" />
            <Array as="points">
              <mxPoint x="190" y="405" />
              <mxPoint x="190" y="365" />
            </Array>
          </mxGeometry>
        </mxCell>
        <mxCell id="K0SXBpxwmkwl7hcp56vt-6" value="&lt;font style=&quot;color: light-dark(rgb(214, 182, 86), rgb(237, 237, 237));&quot;&gt;光标位置&lt;/font&gt;" style="text;html=1;align=center;verticalAlign=middle;whiteSpace=wrap;rounded=0;strokeWidth=2;" vertex="1" parent="1">
          <mxGeometry x="100" y="390" width="60" height="30" as="geometry" />
        </mxCell>
        <mxCell id="K0SXBpxwmkwl7hcp56vt-8" value="" style="shape=note;whiteSpace=wrap;html=1;backgroundOutline=1;darkOpacity=0.05;strokeWidth=2;dashed=1;" vertex="1" parent="1">
          <mxGeometry x="210" y="440" width="80" height="110" as="geometry" />
        </mxCell>
        <mxCell id="K0SXBpxwmkwl7hcp56vt-3" value="" style="rounded=0;whiteSpace=wrap;html=1;strokeWidth=2;fillColor=#d5e8d4;strokeColor=#82b366;dashed=1;" vertex="1" parent="1">
          <mxGeometry x="210" y="500" width="80" height="50" as="geometry" />
        </mxCell>
        <mxCell id="K0SXBpxwmkwl7hcp56vt-10" value="&lt;font style=&quot;color: light-dark(rgb(108, 142, 191), rgb(109, 81, 0));&quot;&gt;文本区域&lt;/font&gt;" style="text;html=1;align=center;verticalAlign=middle;whiteSpace=wrap;rounded=0;" vertex="1" parent="1">
          <mxGeometry x="220" y="170" width="60" height="30" as="geometry" />
        </mxCell>
        <mxCell id="K0SXBpxwmkwl7hcp56vt-11" value="" style="rounded=0;whiteSpace=wrap;html=1;strokeWidth=2;fillColor=#dae8fc;strokeColor=#6c8ebf;dashed=1;" vertex="1" parent="1">
          <mxGeometry x="414" y="210" width="80" height="390" as="geometry" />
        </mxCell>
        <mxCell id="K0SXBpxwmkwl7hcp56vt-13" value="" style="shape=note;whiteSpace=wrap;html=1;backgroundOutline=1;darkOpacity=0.05;strokeWidth=2;" vertex="1" parent="1">
          <mxGeometry x="414" y="310" width="80" height="110" as="geometry" />
        </mxCell>
        <mxCell id="K0SXBpxwmkwl7hcp56vt-14" value="" style="rounded=0;whiteSpace=wrap;html=1;strokeWidth=2;fillColor=#d5e8d4;strokeColor=#82b366;" vertex="1" parent="1">
          <mxGeometry x="414" y="370" width="80" height="50" as="geometry" />
        </mxCell>
        <mxCell id="K0SXBpxwmkwl7hcp56vt-12" value="" style="endArrow=none;html=1;rounded=0;strokeWidth=2;fillColor=#fff2cc;strokeColor=#d6b656;" edge="1" parent="1">
          <mxGeometry width="50" height="50" relative="1" as="geometry">
            <mxPoint x="444" y="380" as="sourcePoint" />
            <mxPoint x="444" y="340" as="targetPoint" />
          </mxGeometry>
        </mxCell>
        <mxCell id="K0SXBpxwmkwl7hcp56vt-16" value="" style="endArrow=classic;html=1;rounded=0;strokeWidth=2;fillColor=#dae8fc;strokeColor=#6c8ebf;" edge="1" parent="1">
          <mxGeometry width="50" height="50" relative="1" as="geometry">
            <mxPoint x="380" y="480" as="sourcePoint" />
            <mxPoint x="380" y="390" as="targetPoint" />
          </mxGeometry>
        </mxCell>
        <mxCell id="K0SXBpxwmkwl7hcp56vt-17" value="&lt;font style=&quot;color: light-dark(rgb(108, 142, 191), rgb(237, 237, 237));&quot;&gt;向上滑动&lt;/font&gt;" style="edgeLabel;html=1;align=center;verticalAlign=middle;resizable=0;points=[];" vertex="1" connectable="0" parent="K0SXBpxwmkwl7hcp56vt-16">
          <mxGeometry x="-0.3306" y="-1" relative="1" as="geometry">
            <mxPoint as="offset" />
          </mxGeometry>
        </mxCell>
        <mxCell id="K0SXBpxwmkwl7hcp56vt-20" value="" style="rounded=0;whiteSpace=wrap;html=1;strokeWidth=2;fillColor=#dae8fc;strokeColor=#6c8ebf;dashed=1;" vertex="1" parent="1">
          <mxGeometry x="620" y="210" width="80" height="160" as="geometry" />
        </mxCell>
        <mxCell id="K0SXBpxwmkwl7hcp56vt-21" value="" style="shape=note;whiteSpace=wrap;html=1;backgroundOutline=1;darkOpacity=0.05;strokeWidth=2;" vertex="1" parent="1">
          <mxGeometry x="620" y="310" width="80" height="110" as="geometry" />
        </mxCell>
        <mxCell id="K0SXBpxwmkwl7hcp56vt-22" value="" style="rounded=0;whiteSpace=wrap;html=1;strokeWidth=2;fillColor=#d5e8d4;strokeColor=#82b366;" vertex="1" parent="1">
          <mxGeometry x="620" y="370" width="80" height="50" as="geometry" />
        </mxCell>
        <mxCell id="K0SXBpxwmkwl7hcp56vt-23" value="" style="endArrow=none;html=1;rounded=0;strokeWidth=2;fillColor=#fff2cc;strokeColor=#d6b656;" edge="1" parent="1">
          <mxGeometry width="50" height="50" relative="1" as="geometry">
            <mxPoint x="650" y="370" as="sourcePoint" />
            <mxPoint x="650" y="340" as="targetPoint" />
          </mxGeometry>
        </mxCell>
        <mxCell id="K0SXBpxwmkwl7hcp56vt-24" value="" style="endArrow=classic;html=1;rounded=0;strokeWidth=2;fillColor=#f8cecc;strokeColor=light-dark(#000000, #d7817e);" edge="1" parent="1">
          <mxGeometry width="50" height="50" relative="1" as="geometry">
            <mxPoint x="520" y="390" as="sourcePoint" />
            <mxPoint x="590" y="390" as="targetPoint" />
          </mxGeometry>
        </mxCell>
        <mxCell id="K0SXBpxwmkwl7hcp56vt-28" value="优化后" style="edgeLabel;html=1;align=center;verticalAlign=middle;resizable=0;points=[];" vertex="1" connectable="0" parent="K0SXBpxwmkwl7hcp56vt-24">
          <mxGeometry x="-0.1333" y="3" relative="1" as="geometry">
            <mxPoint as="offset" />
          </mxGeometry>
        </mxCell>
        <mxCell id="K0SXBpxwmkwl7hcp56vt-26" value="&lt;font style=&quot;color: light-dark(rgb(0, 0, 0), rgb(109, 81, 0));&quot;&gt;遮挡&lt;/font&gt;" style="text;html=1;align=center;verticalAlign=middle;whiteSpace=wrap;rounded=0;strokeWidth=2;" vertex="1" parent="1">
          <mxGeometry x="330" y="340" width="40" height="20" as="geometry" />
        </mxCell>
        <mxCell id="K0SXBpxwmkwl7hcp56vt-30" style="edgeStyle=orthogonalEdgeStyle;rounded=0;orthogonalLoop=1;jettySize=auto;html=1;entryX=0.325;entryY=0.2;entryDx=0;entryDy=0;entryPerimeter=0;curved=1;strokeWidth=2;dashed=1;" edge="1" parent="1" source="K0SXBpxwmkwl7hcp56vt-26" target="K0SXBpxwmkwl7hcp56vt-14">
          <mxGeometry relative="1" as="geometry">
            <Array as="points">
              <mxPoint x="400" y="350" />
              <mxPoint x="400" y="380" />
            </Array>
          </mxGeometry>
        </mxCell>
        <mxCell id="K0SXBpxwmkwl7hcp56vt-31" value="" style="rounded=0;whiteSpace=wrap;html=1;strokeWidth=2;fillColor=#dae8fc;strokeColor=#6c8ebf;dashed=1;" vertex="1" parent="1">
          <mxGeometry x="720" y="210" width="80" height="160" as="geometry" />
        </mxCell>
      </root>
    </mxGraphModel>
  </diagram>
</mxfile>
